<svg width="179" height="111" viewBox="0 0 179 111" fill="none" xmlns="http://www.w3.org/2000/svg">
<path d="M103.182 17.6153C105.801 16.2739 108.548 15.184 111.374 14.3743C114.2 13.5646 117.104 13.0351 120.027 12.7946C125.876 12.3115 131.807 12.9998 137.374 14.7869C142.94 16.5718 148.142 19.4532 152.587 23.2215C154.811 25.1035 156.844 27.2038 158.65 29.4807C160.457 31.7576 162.035 34.211 163.367 36.7879C164.689 39.3692 165.765 42.0741 166.562 44.8585C167.361 47.6406 167.882 50.4999 168.118 53.3813C168.593 59.1419 167.913 64.9819 166.151 70.4645C164.389 75.9471 161.545 81.0701 157.829 85.4451C155.972 87.6338 153.901 89.6348 151.655 91.4131C149.41 93.1914 146.99 94.7468 144.448 96.0551C146.965 94.6983 149.352 93.1009 151.556 91.2874C153.76 89.4738 155.782 87.444 157.584 85.2377C161.19 80.8274 163.903 75.7066 165.539 70.2726C167.173 64.8363 167.73 59.0912 167.16 53.4674C166.878 50.6543 166.315 47.8744 165.484 45.1784C164.656 42.4823 163.561 39.8701 162.23 37.3858C160.892 34.9059 159.315 32.5585 157.526 30.3897C155.738 28.2209 153.737 26.2309 151.563 24.457C147.213 20.9071 142.163 18.2375 136.804 16.6291C131.445 15.0208 125.779 14.4736 120.235 15.0362C117.464 15.3164 114.721 15.8702 112.063 16.6865C109.404 17.5028 106.83 18.5795 104.381 19.8922L104.379 19.8944C103.752 20.2298 102.972 19.9959 102.637 19.3693C102.301 18.7428 102.535 17.9639 103.162 17.6286C103.166 17.622 103.175 17.6176 103.182 17.6153Z" fill="#CF3C27"/>
<path d="M162.667 57.6505C161.958 57.6108 161.351 58.1535 161.311 58.8617L161.307 58.9257L161.23 60.298L161.21 60.6422C161.203 60.7569 161.199 60.8717 161.183 60.9842L161.11 61.6681L161.038 62.3521L161.002 62.694C160.989 62.8088 160.967 62.9213 160.951 63.0338L160.737 64.3907C160.706 64.6179 160.651 64.8407 160.605 65.0658L160.463 65.7387L160.322 66.4116L160.148 67.0757L159.973 67.7398C159.911 67.9604 159.863 68.1855 159.788 68.4017L159.37 69.7122C159.335 69.8203 159.304 69.9328 159.262 70.0387L159.141 70.3609L158.9 71.0051L158.659 71.6493C158.573 71.8611 158.478 72.0707 158.388 72.2825L158.116 72.9157C158.024 73.1253 157.942 73.3415 157.836 73.5445L157.229 74.7822C157.131 74.9918 157.017 75.1904 156.906 75.3912L156.573 75.9935L156.239 76.598L155.877 77.1849L155.515 77.7717C155.396 77.9681 155.277 78.1645 155.142 78.352L154.363 79.4904C153.283 80.9797 152.106 82.4005 150.834 83.7331C149.545 85.0502 148.169 86.2813 146.716 87.4176C145.25 88.5384 143.704 89.5488 142.099 90.4622L140.878 91.1153C140.677 91.2278 140.465 91.3227 140.258 91.422L139.63 91.7176L139.003 92.0132L138.363 92.278L137.723 92.5428C137.509 92.631 137.297 92.7237 137.078 92.7965L135.773 93.2642L135.61 93.3238L135.444 93.3745L135.113 93.476L134.45 93.6768C134.23 93.743 134.009 93.8136 133.786 93.8776L133.112 94.0452L132.439 94.2151C132.214 94.2725 131.991 94.3298 131.763 94.3718L130.401 94.6409C130.176 94.6917 129.944 94.7159 129.716 94.7534L129.03 94.8549L128.343 94.9564L127.652 95.0226L126.961 95.0888L126.614 95.1219L126.442 95.1395L126.267 95.1484L124.879 95.2101L124.532 95.2256C124.417 95.2278 124.3 95.2256 124.185 95.2256L123.49 95.2212C122.562 95.2366 121.637 95.1594 120.71 95.1131C120.248 95.0734 119.787 95.016 119.325 94.9697C119.096 94.9432 118.864 94.9233 118.634 94.8924L117.947 94.7843L117.261 94.6762C117.031 94.6387 116.801 94.6078 116.576 94.5549L115.214 94.2681C114.986 94.2261 114.763 94.1622 114.538 94.1026L113.865 93.9261L113.191 93.7496C112.968 93.6834 112.75 93.6106 112.527 93.54L111.862 93.3304L111.531 93.2245L111.365 93.1715L111.202 93.1098L109.897 92.6222C109.789 92.5803 109.678 92.545 109.572 92.4964L109.252 92.3596L108.612 92.0839L107.971 91.8081C107.762 91.7088 107.554 91.6051 107.344 91.5036L106.717 91.1969C106.51 91.0932 106.298 90.9984 106.097 90.8814L104.876 90.2085C103.271 89.2686 101.72 88.2317 100.259 87.08C98.8058 85.9151 97.4302 84.6553 96.1429 83.3073C94.8755 81.9394 93.6986 80.4899 92.6233 78.9653C91.9786 78.0343 91.3802 77.0701 90.8193 76.0861C90.4815 76.2737 90.1282 76.4369 89.7705 76.5781C90.3468 77.6261 90.9606 78.652 91.6297 79.6449C92.7183 81.2334 93.9106 82.7469 95.2001 84.1788C96.5117 85.5908 97.916 86.9168 99.4042 88.1434C100.903 89.3591 102.493 90.4578 104.147 91.4551L105.406 92.1721C105.613 92.2957 105.832 92.3993 106.046 92.5097L106.693 92.8384C106.909 92.9465 107.124 93.059 107.34 93.1649L108.002 93.4606L108.665 93.7562L108.996 93.904C109.106 93.9548 109.221 93.9945 109.332 94.0386L110.683 94.5637L110.853 94.6299L111.025 94.6873L111.37 94.802L112.059 95.0314C112.288 95.1065 112.518 95.1859 112.747 95.2587L113.447 95.4528L114.147 95.647C114.381 95.711 114.613 95.7816 114.85 95.8301L116.265 96.15C116.501 96.2074 116.74 96.2449 116.978 96.2868L117.694 96.4104L118.409 96.5339C118.647 96.5714 118.888 96.5935 119.129 96.6244C119.61 96.6817 120.089 96.7457 120.571 96.7943C121.536 96.8582 122.503 96.9509 123.472 96.9487L124.198 96.9619C124.32 96.9641 124.441 96.9686 124.563 96.9686L124.927 96.9575L126.38 96.9134L126.561 96.9068L126.742 96.8913L127.104 96.8626L127.828 96.8031L128.553 96.7435L129.275 96.6486L129.997 96.5538C130.237 96.5207 130.478 96.4964 130.717 96.4479L132.15 96.1853C132.39 96.1456 132.624 96.0882 132.861 96.0309L133.569 95.8632L134.278 95.6955C134.512 95.6337 134.744 95.5631 134.978 95.497L135.678 95.294L136.029 95.1925L136.204 95.1418L136.376 95.0822L137.754 94.61C137.985 94.535 138.211 94.4424 138.436 94.3519L139.114 94.0827L139.792 93.8114L140.456 93.5091L141.119 93.2068C141.34 93.1054 141.563 93.0083 141.777 92.8936L143.073 92.2251C144.777 91.2896 146.425 90.246 147.986 89.0833C149.536 87.9074 151.009 86.6277 152.391 85.2532C153.755 83.8633 155.023 82.3784 156.191 80.8164L157.034 79.6228C157.178 79.4264 157.308 79.2191 157.438 79.0139L157.831 78.3961L158.224 77.7784L158.589 77.1429L158.951 76.5075C159.07 76.2957 159.196 76.0861 159.302 75.8655L159.964 74.5594C160.079 74.3432 160.17 74.1181 160.274 73.8953L160.572 73.2268C160.671 73.004 160.773 72.7811 160.868 72.5561L161.135 71.8744L161.4 71.1926L161.532 70.8506C161.579 70.7381 161.612 70.619 161.651 70.5043L162.115 69.1143C162.197 68.8849 162.254 68.6466 162.323 68.4105L162.519 67.7045L162.716 66.9985L162.877 66.2836L163.038 65.5688C163.089 65.3305 163.153 65.0923 163.188 64.8518L163.438 63.4067C163.458 63.2853 163.482 63.1662 163.497 63.0448L163.541 62.6808L163.63 61.9527L163.718 61.2247C163.736 61.1033 163.742 60.982 163.751 60.8606L163.778 60.4944L163.879 59.0316C163.879 59.0272 163.879 59.0184 163.882 59.014C163.919 58.2969 163.376 57.6902 162.667 57.6505Z" fill="#282828"/>
<path d="M86.2107 51.7916L86.2372 51.6283L86.3476 50.9333L86.458 50.2384L86.6038 49.55L86.7495 48.8617C86.8003 48.6322 86.84 48.4005 86.9063 48.1755L87.2662 46.8142C87.3214 46.587 87.3943 46.3642 87.4671 46.1391L87.6813 45.4684L87.8955 44.7977C87.9728 44.5771 88.0589 44.3586 88.1406 44.138L88.3879 43.4783L88.5115 43.1474L88.5734 42.9819L88.644 42.8209L89.2004 41.528C89.2888 41.3096 89.3948 41.1 89.4985 40.8904L89.8077 40.2572L90.1168 39.624L90.4568 39.0062L90.7969 38.3885C90.9117 38.1833 91.0199 37.9737 91.1479 37.7773L91.8899 36.5771C92.9188 35.0018 94.0471 33.4927 95.2836 32.0697C96.5334 30.6599 97.8759 29.3361 99.3045 28.1028C100.746 26.8871 102.274 25.7752 103.869 24.7647L105.083 24.0388C105.284 23.9131 105.494 23.805 105.701 23.6947L106.326 23.3615L106.951 23.0284L107.591 22.7239L108.232 22.4216C108.446 22.3201 108.658 22.2164 108.876 22.1304L110.186 21.5877C110.402 21.4928 110.627 21.4222 110.85 21.3383L111.517 21.0979C111.74 21.0184 111.961 20.9368 112.186 20.8596L112.864 20.6544L113.542 20.447L113.882 20.3433C113.995 20.308 114.112 20.2837 114.224 20.2529L115.6 19.9087C115.827 19.8447 116.061 19.8094 116.293 19.7609L116.989 19.6219L117.684 19.4851L118.386 19.3814L119.089 19.2777C119.323 19.2446 119.557 19.2027 119.793 19.185L121.206 19.0504C121.323 19.0394 121.442 19.0262 121.559 19.0196L121.915 19.0041L122.624 18.9732L123.335 18.9423C123.454 18.9357 123.571 18.9357 123.69 18.9379L124.046 18.9401L125.468 18.949L124.046 18.9203L123.69 18.9137C123.571 18.9114 123.454 18.907 123.335 18.9137L122.624 18.9357L121.913 18.9578L121.557 18.9688C121.438 18.9732 121.321 18.9865 121.202 18.9953L119.784 19.11C119.548 19.1232 119.314 19.163 119.078 19.1916L118.371 19.2843L117.664 19.377L116.964 19.5049L116.262 19.6351C116.03 19.6814 115.794 19.7145 115.565 19.7741L114.178 20.1006C114.063 20.1293 113.946 20.1514 113.831 20.1867L113.489 20.286L112.805 20.4845L112.12 20.6831C111.895 20.7559 111.67 20.8353 111.444 20.9125L110.771 21.1442C110.548 21.2236 110.318 21.292 110.1 21.3847L108.775 21.912C108.552 21.9958 108.338 22.0995 108.121 22.1966L107.472 22.4922L106.823 22.7879L106.189 23.1144L105.555 23.4409C105.343 23.549 105.132 23.6571 104.928 23.7807L103.694 24.4955C102.073 25.4928 100.514 26.5937 99.0395 27.8005C97.58 29.025 96.2022 30.3466 94.9171 31.7564C93.6453 33.1772 92.4816 34.6929 91.4151 36.277L90.6467 37.4839C90.5142 37.6824 90.4016 37.892 90.2824 38.0994L89.9269 38.7216L89.5736 39.3438L89.249 39.9814L88.9244 40.6212C88.8162 40.833 88.7058 41.0448 88.6131 41.2654L88.028 42.5738L87.9551 42.737L87.8889 42.9047L87.7586 43.2379L87.498 43.9064C87.4119 44.1292 87.3214 44.352 87.2397 44.5749L87.0123 45.2544L86.7848 45.9339C86.7098 46.1612 86.6303 46.3862 86.5707 46.6179L86.1843 47.999C86.1158 48.2285 86.0694 48.4623 86.0164 48.6962L85.8575 49.3956L85.7007 50.095L85.577 50.801L85.4556 51.5092L85.4004 51.8269C85.6676 51.8004 85.9414 51.7894 86.2107 51.7916Z" fill="#282828"/>
<path d="M90.6405 45.5513L91.1042 44.3511L91.2212 44.051C91.2587 43.9517 91.2985 43.8502 91.3426 43.7532L91.6054 43.1663L91.8682 42.5794L91.9984 42.286C92.0426 42.1889 92.0934 42.094 92.142 41.9992L92.7249 40.8519C92.8176 40.6577 92.9302 40.4768 93.0362 40.2893L93.3564 39.7311L93.6766 39.1729L94.0232 38.6302L94.3699 38.0896C94.4869 37.9109 94.5951 37.7256 94.7254 37.5535L95.4739 36.5077C95.5954 36.3312 95.73 36.1636 95.8625 35.9959L96.2622 35.4928L96.6618 34.9898C96.8009 34.8266 96.9423 34.6655 97.0836 34.5044L97.5075 34.0213C97.651 33.8624 97.7857 33.6947 97.9381 33.5447L98.8301 32.6203C98.9759 32.4636 99.1349 32.3202 99.2916 32.1724L99.7597 31.7334L100.228 31.2943L100.716 30.8773L101.204 30.4603C101.367 30.3213 101.528 30.1823 101.701 30.0544L102.716 29.2711C104.099 28.2629 105.543 27.3429 107.046 26.531C108.559 25.7367 110.124 25.0417 111.727 24.4571C113.337 23.8856 114.986 23.4355 116.656 23.0892L117.914 22.8619C118.124 22.82 118.336 22.7957 118.546 22.7692L119.18 22.6854L119.813 22.6038L120.451 22.5508L121.089 22.5001C121.301 22.4824 121.513 22.4626 121.728 22.4604L123.006 22.4185C123.218 22.4074 123.432 22.4207 123.644 22.4207L124.282 22.4317C124.494 22.4361 124.708 22.4361 124.92 22.4449L125.559 22.4868L126.197 22.5288C126.409 22.542 126.621 22.5552 126.833 22.5839L128.1 22.7317C128.312 22.7516 128.522 22.7935 128.732 22.8266L129.361 22.9325L129.99 23.0384L130.613 23.1752L131.235 23.312L131.547 23.3804C131.651 23.4025 131.754 23.4267 131.856 23.4554L133.086 23.793L133.393 23.8768C133.494 23.9077 133.594 23.943 133.695 23.9761L134.3 24.1746C135.113 24.4218 135.899 24.7505 136.692 25.0527C137.082 25.2182 137.469 25.3947 137.857 25.5668C138.052 25.6551 138.246 25.7367 138.438 25.8294L139.006 26.1162L139.573 26.4052C139.763 26.5023 139.953 26.5949 140.136 26.703L141.24 27.334C141.426 27.4355 141.602 27.5547 141.781 27.6672L142.318 28.0114L142.852 28.3555C143.026 28.4769 143.199 28.6004 143.371 28.724L143.888 29.0924C144.058 29.2182 144.236 29.3329 144.4 29.4675L145.398 30.2551C145.566 30.3831 145.725 30.5243 145.884 30.6633L146.363 31.0825L146.842 31.5017C146.997 31.6473 147.147 31.7951 147.301 31.9407L147.758 32.382C147.908 32.5298 148.067 32.6732 148.209 32.8299L149.079 33.7543C150.207 35.0163 151.256 36.3467 152.199 37.7499C153.128 39.1619 153.963 40.6335 154.698 42.1536C155.409 43.6848 156.019 45.2622 156.52 46.8706C157.008 48.4856 157.37 50.1359 157.631 51.7994L157.794 53.0526C157.825 53.26 157.836 53.4718 157.856 53.6814L157.907 54.3102C157.922 54.5198 157.942 54.7294 157.955 54.939L157.975 55.57L157.995 56.201C158.001 56.4106 158.01 56.6224 158.004 56.832L157.982 58.094C157.984 58.3035 157.96 58.5131 157.948 58.7227L157.907 59.3515C157.891 59.5611 157.88 59.7707 157.862 59.9803L157.789 60.6069L157.717 61.2335C157.692 61.4431 157.672 61.6505 157.633 61.8579L157.423 63.1C157.392 63.3074 157.343 63.5126 157.299 63.7178L157.165 64.3333L157.028 64.9489C156.979 65.1518 156.92 65.3548 156.864 65.5578C156.752 65.9615 156.646 66.3697 156.526 66.7712C156.259 67.5677 156.019 68.3708 155.698 69.1474L155.471 69.7343C155.434 69.8313 155.396 69.9306 155.356 70.0277L155.228 70.3145L154.716 71.464C154.674 71.5611 154.628 71.6537 154.579 71.7486L154.435 72.0288L154.151 72.5892L153.866 73.1496L153.552 73.6945L153.239 74.2395C153.133 74.4204 153.036 74.6057 152.919 74.78L152.238 75.839C152.128 76.0177 152.004 76.1876 151.883 76.3575L151.519 76.8694L151.154 77.3812C151.028 77.5489 150.896 77.71 150.766 77.8754L150.375 78.3674C150.242 78.5307 150.121 78.7006 149.977 78.855L149.149 79.7993C149.015 79.9604 148.867 80.1082 148.721 80.2582L148.284 80.7105L147.847 81.1628L147.39 81.593L146.933 82.0232C146.78 82.1666 146.63 82.3123 146.469 82.4446L145.513 83.2587C144.212 84.3089 142.845 85.2775 141.415 86.1424C139.975 86.9918 138.48 87.7419 136.943 88.3928C135.398 89.0238 133.81 89.5444 132.194 89.9614L130.975 90.2416C130.772 90.2924 130.566 90.3277 130.361 90.363L129.745 90.4733L129.129 90.5836L128.509 90.6652L127.888 90.7469C127.681 90.7733 127.475 90.8042 127.268 90.8175L126.022 90.9189C125.815 90.941 125.607 90.9388 125.4 90.9476L124.775 90.9675C124.567 90.9741 124.36 90.9829 124.15 90.9851L123.525 90.9741L122.9 90.9631C122.693 90.9609 122.485 90.9587 122.277 90.941L121.032 90.8572C120.825 90.8483 120.619 90.8152 120.412 90.7932L119.791 90.7204L119.173 90.6476L118.557 90.5439L117.943 90.4402C117.738 90.4027 117.532 90.3762 117.329 90.3277L116.113 90.0585C116.011 90.0342 115.909 90.0166 115.808 89.9901L115.508 89.9085L114.907 89.743L114.306 89.5775C114.205 89.5511 114.108 89.5202 114.008 89.4871L113.712 89.39L112.529 89.0017L113.717 89.3723L114.015 89.465C114.114 89.4959 114.214 89.5268 114.313 89.5511L114.916 89.7055L115.519 89.8599L115.819 89.9372C115.92 89.9614 116.022 89.9791 116.124 90.0011L117.342 90.2504C117.546 90.2968 117.751 90.321 117.956 90.3541L118.57 90.449L119.184 90.5439L119.802 90.6079L120.42 90.6718C120.626 90.6895 120.831 90.7204 121.039 90.727L122.28 90.791C122.487 90.8064 122.693 90.8042 122.9 90.8042L123.521 90.8064L124.141 90.8086C124.349 90.802 124.554 90.791 124.761 90.7822L125.382 90.7535C125.59 90.7424 125.795 90.7402 126.002 90.716L127.239 90.5968C127.444 90.5814 127.65 90.5483 127.855 90.5174L128.469 90.4269L129.083 90.3365L129.692 90.2173L130.301 90.0982C130.505 90.0585 130.708 90.021 130.909 89.968L132.112 89.6724C133.706 89.2356 135.272 88.695 136.791 88.0486C138.303 87.3823 139.767 86.6189 141.176 85.7607C142.576 84.887 143.907 83.9118 145.175 82.8594L146.104 82.0453C146.261 81.9129 146.407 81.7673 146.555 81.6239L146.999 81.1959L147.443 80.7657L147.864 80.3156L148.286 79.8655C148.427 79.7155 148.569 79.5676 148.699 79.4088L149.498 78.4689C149.635 78.3145 149.752 78.1468 149.88 77.9857L150.256 77.496C150.379 77.3327 150.507 77.1716 150.629 77.0062L150.98 76.4987L151.331 75.9913C151.448 75.8236 151.567 75.6559 151.671 75.4772L152.32 74.4314C152.433 74.2593 152.526 74.0762 152.627 73.8975L152.925 73.3592L153.223 72.8209L153.495 72.2693L153.766 71.7155L153.901 71.4397C153.947 71.3471 153.992 71.2544 154.029 71.1595L154.515 70.0277L154.636 69.7453C154.674 69.6504 154.707 69.5534 154.745 69.4563L154.959 68.8782C155.261 68.1149 155.484 67.325 155.734 66.544C155.844 66.1491 155.941 65.7519 156.045 65.3548C156.096 65.1562 156.151 64.9599 156.195 64.7591L156.319 64.1568L156.443 63.5545C156.485 63.3537 156.529 63.1529 156.555 62.95L156.741 61.7365C156.776 61.5357 156.791 61.3306 156.814 61.1276L156.875 60.5164L156.937 59.9053C156.95 59.7023 156.959 59.4971 156.97 59.292L157.001 58.6786C157.008 58.4734 157.03 58.2705 157.026 58.0653L157.028 56.8386C157.032 56.6334 157.021 56.4304 157.01 56.2252L156.981 55.6119L156.953 54.9985L156.895 54.3874L156.836 53.7763C156.814 53.5733 156.802 53.3681 156.767 53.1673L156.591 51.9539C156.312 50.3433 155.939 48.7504 155.442 47.1949C154.934 45.6439 154.323 44.1282 153.614 42.6588C152.883 41.2005 152.057 39.7929 151.141 38.4471C150.214 37.1078 149.183 35.8436 148.083 34.6456L147.235 33.7697C147.096 33.6197 146.944 33.4873 146.796 33.3461L146.35 32.9292L145.904 32.5144L145.438 32.1195L144.974 31.7245C144.819 31.5922 144.665 31.4598 144.501 31.3384L143.534 30.5971C143.375 30.4692 143.203 30.3611 143.038 30.2441L142.536 29.8977C142.368 29.783 142.203 29.6661 142.035 29.5536L141.516 29.2336L140.999 28.9137C140.827 28.8078 140.657 28.6975 140.476 28.6026L139.41 28.0136C139.235 27.9121 139.05 27.826 138.869 27.7356L138.321 27.4686L137.774 27.2017C137.59 27.1156 137.4 27.0406 137.215 26.959C136.842 26.8001 136.471 26.6369 136.095 26.4846C135.331 26.2088 134.578 25.9044 133.799 25.6815L133.218 25.5006C133.121 25.4719 133.026 25.4388 132.927 25.4102L132.633 25.3352L131.456 25.0307C131.359 25.0042 131.26 24.9821 131.16 24.9623L130.862 24.9005L130.266 24.7792L129.67 24.6578L129.069 24.5674L128.469 24.4747C128.268 24.446 128.069 24.4085 127.868 24.3931L126.66 24.2695C126.459 24.2452 126.256 24.2364 126.055 24.2276L125.45 24.1967L124.845 24.1658C124.642 24.1614 124.441 24.1636 124.238 24.1636L123.631 24.1614C123.428 24.1636 123.227 24.1526 123.024 24.168L121.812 24.2254C121.608 24.2298 121.407 24.2519 121.207 24.2717L120.604 24.3291L120.001 24.3865L119.4 24.4725L118.8 24.5607C118.601 24.5916 118.4 24.6159 118.201 24.6578L117.013 24.8895C115.437 25.2403 113.885 25.6904 112.37 26.2508C110.864 26.8288 109.396 27.5039 107.98 28.2739C106.574 29.0616 105.227 29.9485 103.94 30.9148L102.995 31.665C102.836 31.7863 102.685 31.9209 102.533 32.0533L102.08 32.4504L101.628 32.8475L101.195 33.2667L100.762 33.6859C100.619 33.8249 100.471 33.9617 100.336 34.1117L99.5124 34.9898C99.3711 35.1332 99.2475 35.2921 99.1172 35.4443L98.7264 35.9032C98.5961 36.0577 98.4658 36.2077 98.3377 36.3621L97.9712 36.8387L97.6047 37.3152C97.481 37.4741 97.3574 37.6329 97.247 37.7984L96.5625 38.7868C96.4432 38.9479 96.3461 39.1244 96.2379 39.2943L95.9199 39.8061L95.602 40.318L95.3105 40.8453L95.019 41.3704C94.9241 41.5469 94.8203 41.719 94.7364 41.8999L94.2087 42.9787C94.1645 43.0692 94.1182 43.1575 94.0784 43.2501L93.9592 43.5259L93.7229 44.0775L93.4867 44.629C93.4447 44.7195 93.4116 44.8144 93.3763 44.9092L93.2725 45.1916L92.8552 46.3191L92.8353 46.3742C92.6079 46.9876 91.9278 47.2986 91.3161 47.0736C90.7023 46.8464 90.391 46.1668 90.6162 45.5557C90.6361 45.5645 90.6405 45.5557 90.6405 45.5513Z" fill="#F7B31C"/>
<path d="M94.0543 96.85C93.7584 96.85 93.4603 96.7507 93.2152 96.5433C92.6632 96.08 92.5926 95.257 93.0563 94.7077L105.916 79.4336C106.38 78.882 107.203 78.8114 107.753 79.2748C108.305 79.7381 108.376 80.561 107.912 81.1104L95.0523 96.3844C94.7962 96.6933 94.4275 96.85 94.0543 96.85Z" fill="#282828"/>
<path d="M10.6123 63.9031C10.6123 62.9544 10.7934 62.0631 11.1577 61.2247C11.522 60.3863 12.021 59.6538 12.657 59.0272C13.2929 58.4007 14.0304 57.9109 14.8672 57.5534C15.7063 57.1982 16.5983 57.0195 17.5478 57.0195C18.5127 57.0195 19.4158 57.1982 20.2549 57.5534C21.0939 57.9087 21.827 58.4007 22.4541 59.0272C23.0812 59.6538 23.5758 60.3819 23.9401 61.2115C24.3044 62.041 24.4855 62.939 24.4855 63.9031C24.4855 64.8518 24.3022 65.7409 23.9401 66.5705C23.5758 67.4001 23.0834 68.1193 22.4651 68.7282C21.8469 69.3372 21.1138 69.8204 20.2659 70.1756C19.418 70.5308 18.5127 70.7095 17.5456 70.7095C16.5961 70.7095 15.6997 70.5308 14.8518 70.1756C14.0039 69.8204 13.2664 69.3328 12.6415 68.715C12.0144 68.0972 11.5198 67.3736 11.1555 66.544C10.7934 65.7145 10.6123 64.8342 10.6123 63.9031ZM20.9813 63.9031C20.9813 63.3957 20.893 62.9213 20.7141 62.4801C20.5353 62.041 20.2902 61.6505 19.9766 61.3129C19.6631 60.9754 19.2988 60.7084 18.8837 60.5121C18.4685 60.3179 18.0225 60.2208 17.55 60.2208C17.0753 60.2208 16.6315 60.3179 16.2163 60.5121C15.8012 60.7062 15.4369 60.9732 15.1234 61.3129C14.8098 61.6527 14.5647 62.0454 14.3859 62.4933C14.207 62.9412 14.1187 63.4111 14.1187 63.9031C14.1187 64.3951 14.207 64.8562 14.3859 65.2865C14.5647 65.7189 14.8098 66.0984 15.1234 66.4293C15.4369 66.7602 15.8012 67.0228 16.2163 67.2169C16.6315 67.4111 17.0753 67.5082 17.55 67.5082C18.0247 67.5082 18.4685 67.4155 18.8837 67.228C19.2988 67.0426 19.6631 66.7845 19.9766 66.4536C20.2902 66.1226 20.5353 65.7387 20.7141 65.2975C20.8908 64.8606 20.9813 64.3951 20.9813 63.9031Z" fill="#CF3C27"/>
<path d="M34.2983 57.0195C35.0601 57.0195 35.7689 57.1629 36.4203 57.452C37.0716 57.741 37.6369 58.1293 38.1094 58.6191C38.5841 59.1111 38.9573 59.6935 39.2289 60.3709C39.5005 61.0482 39.6352 61.7763 39.6352 62.5551V70.4535H36.1531V62.7581C36.1531 62.03 35.9036 61.4343 35.4045 60.9688C34.9055 60.5032 34.274 60.2694 33.51 60.2694C33.1038 60.2694 32.7262 60.3422 32.3795 60.4856C32.0329 60.629 31.7304 60.8276 31.4764 61.0835C31.2225 61.3372 31.0238 61.6373 30.878 61.9859C30.7345 62.3322 30.6617 62.7095 30.6617 63.1155V70.4535H27.1553V57.249H30.6617V58.6213C31.0525 58.1138 31.5648 57.7189 32.1985 57.4409C32.8366 57.1585 33.5365 57.0195 34.2983 57.0195Z" fill="#CF3C27"/>
<path d="M53.9433 57.5029L56.4605 64.1305L59.0285 57.2734H62.7645L57.7588 70.478H55.0893L52.4198 63.3164L49.726 70.478H47.0321L42.0508 57.2734H45.7868L48.3791 64.1305L50.8189 57.5029H53.9433Z" fill="#282828"/>
<path d="M64.3389 63.9031C64.3389 62.9544 64.5199 62.0631 64.8843 61.2247C65.2486 60.3863 65.7476 59.6538 66.3835 59.0272C67.0194 58.4007 67.7569 57.9109 68.5938 57.5534C69.4328 57.1982 70.3271 57.0195 71.2744 57.0195C72.2393 57.0195 73.1424 57.1982 73.9814 57.5534C74.8205 57.9087 75.5536 58.4007 76.1806 59.0272C76.8077 59.6538 77.3023 60.3819 77.6667 61.2115C78.031 62.041 78.212 62.939 78.212 63.9031C78.212 64.8518 78.0288 65.7409 77.6667 66.5705C77.3023 67.4001 76.8099 68.1193 76.1917 68.7282C75.5734 69.3372 74.8404 69.8204 73.9925 70.1756C73.1446 70.5308 72.2393 70.7095 71.2721 70.7095C70.3227 70.7095 69.4262 70.5308 68.5783 70.1756C67.7304 69.8204 66.9929 69.3328 66.3681 68.715C65.741 68.0972 65.2464 67.3736 64.882 66.544C64.5199 65.7145 64.3389 64.8342 64.3389 63.9031ZM74.7079 63.9031C74.7079 63.3957 74.6195 62.9213 74.4407 62.4801C74.2618 62.041 74.0168 61.6505 73.7032 61.3129C73.3897 60.9754 73.0253 60.7084 72.6102 60.5121C72.1951 60.3179 71.7491 60.2208 71.2766 60.2208C70.8018 60.2208 70.358 60.3179 69.9429 60.5121C69.5278 60.7062 69.1635 60.9732 68.8499 61.3129C68.5364 61.6527 68.2913 62.0454 68.1124 62.4933C67.9336 62.9412 67.8453 63.4111 67.8453 63.9031C67.8453 64.3951 67.9336 64.8562 68.1124 65.2865C68.2913 65.7189 68.5364 66.0984 68.8499 66.4293C69.1635 66.7602 69.5278 67.0228 69.9429 67.2169C70.358 67.4111 70.8018 67.5082 71.2766 67.5082C71.7513 67.5082 72.1951 67.4155 72.6102 67.228C73.0253 67.0426 73.3897 66.7845 73.7032 66.4536C74.0168 66.1226 74.2618 65.7387 74.4407 65.2975C74.6173 64.8606 74.7079 64.3951 74.7079 63.9031Z" fill="#282828"/>
<path d="M84.3637 58.7987C85.0084 58.139 85.7702 57.6911 86.6512 57.4529C87.5322 57.2168 88.4132 57.0977 89.2943 57.0977L88.2278 60.3232C87.0244 60.3232 86.0793 60.599 85.3948 61.1484C84.7081 61.6977 84.3659 62.6089 84.3659 63.8775V70.4545H80.8838V57.2742H84.3659V58.7987H84.3637Z" fill="#282828"/>
<path d="M96.8936 57.0451C97.6907 57.0451 98.4193 57.1841 99.0796 57.4643C99.7398 57.7445 100.316 58.1548 100.808 58.6954V52.7031H104.315V70.4526H100.808V69.0053C99.742 70.1393 98.4458 70.7063 96.9201 70.7063C96.0391 70.7063 95.2088 70.521 94.4294 70.1482C93.65 69.7753 92.9633 69.2723 92.3715 68.6369C91.7775 68.0015 91.3072 67.2646 90.9606 66.4284C90.6139 65.59 90.4395 64.7053 90.4395 63.7742C90.4395 62.8432 90.6095 61.9673 90.9473 61.1465C91.2851 60.3258 91.7488 59.611 92.3318 58.9998C92.9169 58.3909 93.6014 57.9121 94.3897 57.5658C95.1779 57.2194 96.0126 57.0451 96.8936 57.0451ZM100.806 63.8779C100.806 63.3705 100.718 62.8917 100.539 62.4438C100.36 61.996 100.12 61.6055 99.8148 61.2767C99.5101 60.9458 99.1502 60.6876 98.7351 60.5023C98.32 60.317 97.8673 60.2221 97.3749 60.2221C96.8825 60.2221 96.4299 60.3148 96.0148 60.5023C95.5997 60.6876 95.2398 60.9458 94.935 61.2767C94.6303 61.6077 94.3897 61.9916 94.2108 62.4328C94.032 62.8741 93.9436 63.355 93.9436 63.8801C93.9436 64.4052 94.0275 64.8884 94.1976 65.3274C94.3676 65.7687 94.6038 66.1482 94.9085 66.4703C95.2133 66.7924 95.5732 67.0461 95.9883 67.2315C96.4034 67.419 96.856 67.5117 97.3484 67.5117C97.8408 67.5117 98.2979 67.419 98.7219 67.2315C99.1458 67.0461 99.5101 66.7924 99.8148 66.4703C100.12 66.1482 100.36 65.7643 100.539 65.3142C100.718 64.8641 100.806 64.3854 100.806 63.8779Z" fill="#282828"/>
<path d="M109.219 66.4685C109.506 66.8744 109.934 67.2054 110.502 67.4591C111.069 67.7128 111.674 67.8408 112.319 67.8408C112.946 67.8408 113.476 67.7172 113.907 67.4723C114.339 67.2274 114.554 66.934 114.554 66.5964C114.554 66.292 114.37 66.0338 114.008 65.822C113.644 65.6102 113.196 65.4072 112.661 65.2131C112.127 65.0189 111.544 64.8116 110.908 64.5909C110.272 64.3703 109.687 64.1055 109.155 63.7901C108.621 63.4768 108.172 63.0907 107.808 62.634C107.444 62.1773 107.263 61.6102 107.263 60.9329C107.263 60.3571 107.397 59.8276 107.669 59.3466C107.941 58.8634 108.314 58.4442 108.786 58.089C109.261 57.7338 109.828 57.458 110.489 57.2639C111.149 57.0697 111.862 56.9727 112.624 56.9727C113.878 56.9727 114.978 57.2264 115.927 57.7338C116.877 58.2413 117.528 58.9274 117.883 59.7901L115.673 61.1094C115.452 60.6858 115.088 60.3571 114.58 60.1188C114.072 59.8827 113.469 59.7636 112.776 59.7636C112.131 59.7636 111.61 59.8651 111.213 60.0681C110.815 60.271 110.614 60.5424 110.614 60.88C110.614 61.1182 110.796 61.3234 111.16 61.5021C111.524 61.6809 111.986 61.8573 112.544 62.0361C113.103 62.2148 113.701 62.4133 114.335 62.6318C114.971 62.8524 115.567 63.1304 116.128 63.4701C116.687 63.8099 117.148 64.2247 117.512 64.7145C117.877 65.2065 118.058 65.8066 118.058 66.517C118.058 67.1259 117.919 67.6908 117.638 68.2048C117.358 68.7211 116.969 69.169 116.47 69.5506C115.971 69.9323 115.377 70.228 114.691 70.4398C114.004 70.6516 113.255 70.7575 112.441 70.7575C111.171 70.7575 110.029 70.5038 109.022 69.9963C108.013 69.4889 107.265 68.8027 106.772 67.9401L109.219 66.4685Z" fill="#282828"/>
</svg>
