<svg width="20" height="20" viewBox="0 0 20 20" fill="none" xmlns="http://www.w3.org/2000/svg">
<path d="M12.275 6.41667C12.1984 6.33842 12.138 6.24585 12.0971 6.14425C12.0563 6.04264 12.0359 5.93399 12.037 5.82449C12.0382 5.715 12.0609 5.6068 12.1039 5.50609C12.1469 5.40537 12.2093 5.3141 12.2875 5.2375C12.3657 5.1609 12.4583 5.10045 12.5599 5.05962C12.6615 5.01879 12.7702 4.99838 12.8797 4.99954C12.9892 5.0007 13.0974 5.02341 13.1981 5.06639C13.2988 5.10936 13.3901 5.17175 13.4667 5.25L15 6.8175V0.833333C15 0.61232 15.0878 0.400358 15.2441 0.244078C15.4004 0.0877974 15.6123 0 15.8333 0C16.0543 0 16.2663 0.0877974 16.4226 0.244078C16.5789 0.400358 16.6667 0.61232 16.6667 0.833333V6.8175L18.2 5.25C18.3547 5.09198 18.5659 5.00188 18.787 4.99954C19.0081 4.99719 19.2211 5.08279 19.3792 5.2375C19.5372 5.39221 19.6273 5.60336 19.6296 5.82449C19.632 6.04563 19.5464 6.25864 19.3917 6.41667L17.2958 8.55833C16.911 8.94501 16.3888 9.16371 15.8433 9.16667C15.8381 9.16794 15.8327 9.16794 15.8275 9.16667C15.5581 9.16674 15.2913 9.11363 15.0425 9.01039C14.7937 8.90714 14.5677 8.75578 14.3775 8.565L12.275 6.41667ZM19.1667 9.16667C18.9457 9.16667 18.7337 9.25446 18.5774 9.41074C18.4211 9.56702 18.3333 9.77899 18.3333 10V15.8333C18.3333 16.4964 18.0699 17.1323 17.6011 17.6011C17.1323 18.0699 16.4964 18.3333 15.8333 18.3333H4.16667C3.50363 18.3333 2.86774 18.0699 2.3989 17.6011C1.93006 17.1323 1.66667 16.4964 1.66667 15.8333V7.55917L7.05417 12.9467C7.83675 13.7213 8.89297 14.1565 9.99412 14.1581C11.0953 14.1597 12.1527 13.7274 12.9375 12.955L14.5058 11.4308C14.5856 11.3549 14.6495 11.2638 14.6938 11.163C14.7382 11.0622 14.7621 10.9536 14.7642 10.8435C14.7663 10.7333 14.7466 10.6239 14.7061 10.5214C14.6657 10.419 14.6053 10.3256 14.5286 10.2466C14.4518 10.1676 14.3601 10.1047 14.2589 10.0613C14.1576 10.018 14.0488 9.99517 13.9386 9.99417C13.8285 9.99317 13.7192 10.014 13.6172 10.0555C13.5152 10.097 13.4224 10.1583 13.3442 10.2358L11.7675 11.7683C11.2911 12.2225 10.6582 12.4758 10 12.4758C9.34183 12.4758 8.7089 12.2225 8.2325 11.7683L1.9675 5.5C2.17817 5.09878 2.49426 4.76261 2.88176 4.52767C3.26927 4.29273 3.71351 4.16792 4.16667 4.16667H10C10.221 4.16667 10.433 4.07887 10.5893 3.92259C10.7455 3.76631 10.8333 3.55435 10.8333 3.33333C10.8333 3.11232 10.7455 2.90036 10.5893 2.74408C10.433 2.5878 10.221 2.5 10 2.5H4.16667C3.062 2.50132 2.00296 2.94073 1.22185 3.72185C0.440735 4.50296 0.00132321 5.562 0 6.66667L0 15.8333C0.00132321 16.938 0.440735 17.997 1.22185 18.7782C2.00296 19.5593 3.062 19.9987 4.16667 20H15.8333C16.938 19.9987 17.997 19.5593 18.7782 18.7782C19.5593 17.997 19.9987 16.938 20 15.8333V10C20 9.77899 19.9122 9.56702 19.7559 9.41074C19.5996 9.25446 19.3877 9.16667 19.1667 9.16667Z" fill="#374957"/>
</svg>
