<svg width="705" height="106" viewBox="0 0 705 106" fill="none" xmlns="http://www.w3.org/2000/svg">
<path opacity="0.8" d="M0 77.6924C0 66.9749 7.07937 57.5459 17.3712 54.5557L140.012 18.923C150.346 15.9204 161.496 18.1457 169.886 24.8857L256.117 94.1579C261.237 98.2705 268.267 99.0668 274.177 96.2036L371.343 49.125C377.509 46.1375 384.631 45.8115 391.044 48.2234L466.099 76.4503C471.847 78.6122 478.325 77.2931 482.77 73.0557L542.214 16.3924C559.936 -0.500645 586.578 -3.92251 607.994 7.9437L705 61.6934V90.9617L580.453 27.3357C575.417 24.7632 569.296 25.7409 565.313 29.754L488.288 107.347C480.723 114.969 469.016 116.637 459.623 111.432L408.137 82.9022C398.348 77.4775 386.516 77.218 376.498 82.2084L277.383 131.582C269.502 135.508 260.072 134.59 253.096 129.219L152.611 51.8466C146.596 47.2152 138.684 45.85 131.465 48.1983L12.6186 86.8571C6.39108 88.8828 0 84.241 0 77.6924V77.6924Z" fill="#FFA01C"/>
</svg>
